<svg id="visual" viewBox="0 0 900 600" width="900" height="600" xmlns="http://www.w3.org/2000/svg" xmlns:xlink="http://www.w3.org/1999/xlink" version="1.1"><rect x="0" y="0" width="900" height="600" fill="#184308"></rect><path d="M0 259L60 259L60 248L120 248L120 101L180 101L180 190L240 190L240 89L300 89L300 131L360 131L360 174L420 174L420 226L480 226L480 225L540 225L540 129L600 129L600 120L660 120L660 108L720 108L720 230L780 230L780 155L840 155L840 118L900 118L900 213L900 601L900 601L840 601L840 601L780 601L780 601L720 601L720 601L660 601L660 601L600 601L600 601L540 601L540 601L480 601L480 601L420 601L420 601L360 601L360 601L300 601L300 601L240 601L240 601L180 601L180 601L120 601L120 601L60 601L60 601L0 601Z" fill="#2f5f1d"></path><path d="M0 329L60 329L60 286L120 286L120 236L180 236L180 253L240 253L240 308L300 308L300 253L360 253L360 228L420 228L420 222L480 222L480 282L540 282L540 304L600 304L600 279L660 279L660 261L720 261L720 278L780 278L780 248L840 248L840 300L900 300L900 213L900 601L900 601L840 601L840 601L780 601L780 601L720 601L720 601L660 601L660 601L600 601L600 601L540 601L540 601L480 601L480 601L420 601L420 601L360 601L360 601L300 601L300 601L240 601L240 601L180 601L180 601L120 601L120 601L60 601L60 601L0 601Z" fill="#3f500b"></path><path d="M0 386L60 386L60 417L120 417L120 397L180 397L180 418L240 418L240 343L300 343L300 313L360 313L360 406L420 406L420 395L480 395L480 392L540 392L540 409L600 409L600 362L660 362L660 394L720 394L720 329L780 329L780 443L840 443L840 446L900 446L900 430L900 601L900 601L840 601L840 601L780 601L780 601L720 601L720 601L660 601L660 601L600 601L600 601L540 601L540 601L480 601L480 601L420 601L420 601L360 601L360 601L300 601L300 601L240 601L240 601L180 601L180 601L120 601L120 601L60 601L60 601L0 601Z" fill="#454004"></path><path d="M0 519L60 519L60 522L120 522L120 458L180 458L180 536L240 536L240 473L300 473L300 496L360 496L360 489L420 489L420 496L480 496L480 531L540 531L540 451L600 451L600 474L660 474L660 445L720 445L720 524L780 524L780 529L840 529L840 435L900 435L900 426L900 601L900 601L840 601L840 601L780 601L780 601L720 601L720 601L660 601L660 601L600 601L600 601L540 601L540 601L480 601L480 601L420 601L420 601L360 601L360 601L300 601L300 601L240 601L240 601L180 601L180 601L120 601L120 601L60 601L60 601L0 601Z" fill="#463204"></path></svg>