<svg id="visual" viewBox="0 0 900 600" width="900" height="600" xmlns="http://www.w3.org/2000/svg" xmlns:xlink="http://www.w3.org/1999/xlink" version="1.1"><rect x="0" y="0" width="900" height="600" fill="#10190b"></rect><path d="M402 0L510 0L510 86L518 86L518 171L361 171L361 257L466 257L466 343L435 343L435 429L332 429L332 514L395 514L395 600L0 600L0 514L0 514L0 429L0 429L0 343L0 343L0 257L0 257L0 171L0 171L0 86L0 86L0 0L0 0Z" fill="#77b64d"></path><path d="M278 0L370 0L370 86L206 86L206 171L292 171L292 257L373 257L373 343L327 343L327 429L285 429L285 514L203 514L203 600L0 600L0 514L0 514L0 429L0 429L0 343L0 343L0 257L0 257L0 171L0 171L0 86L0 86L0 0L0 0Z" fill="#5c8d3b"></path><path d="M144 0L116 0L116 86L229 86L229 171L195 171L195 257L139 257L139 343L164 343L164 429L185 429L185 514L121 514L121 600L0 600L0 514L0 514L0 429L0 429L0 343L0 343L0 257L0 257L0 171L0 171L0 86L0 86L0 0L0 0Z" fill="#42662a"></path></svg>