<svg id="visual" viewBox="0 0 900 600" width="900" height="600" xmlns="http://www.w3.org/2000/svg" xmlns:xlink="http://www.w3.org/1999/xlink" version="1.1"><path d="M0 115L13.7 117C27.3 119 54.7 123 82 121C109.3 119 136.7 111 163.8 106C191 101 218 99 245.2 103C272.3 107 299.7 117 327 125C354.3 133 381.7 139 409 141C436.3 143 463.7 141 491 128C518.3 115 545.7 91 573 80C600.3 69 627.7 71 654.8 82C682 93 709 113 736.2 116C763.3 119 790.7 105 818 109C845.3 113 872.7 135 886.3 146L900 157L900 0L886.3 0C872.7 0 845.3 0 818 0C790.7 0 763.3 0 736.2 0C709 0 682 0 654.8 0C627.7 0 600.3 0 573 0C545.7 0 518.3 0 491 0C463.7 0 436.3 0 409 0C381.7 0 354.3 0 327 0C299.7 0 272.3 0 245.2 0C218 0 191 0 163.8 0C136.7 0 109.3 0 82 0C54.7 0 27.3 0 13.7 0L0 0Z" fill="#6a081d"></path><path d="M0 169L13.7 168C27.3 167 54.7 165 82 159C109.3 153 136.7 143 163.8 138C191 133 218 133 245.2 139C272.3 145 299.7 157 327 169C354.3 181 381.7 193 409 193C436.3 193 463.7 181 491 164C518.3 147 545.7 125 573 117C600.3 109 627.7 115 654.8 129C682 143 709 165 736.2 166C763.3 167 790.7 147 818 151C845.3 155 872.7 183 886.3 197L900 211L900 155L886.3 144C872.7 133 845.3 111 818 107C790.7 103 763.3 117 736.2 114C709 111 682 91 654.8 80C627.7 69 600.3 67 573 78C545.7 89 518.3 113 491 126C463.7 139 436.3 141 409 139C381.7 137 354.3 131 327 123C299.7 115 272.3 105 245.2 101C218 97 191 99 163.8 104C136.7 109 109.3 117 82 119C54.7 121 27.3 117 13.7 115L0 113Z" fill="#840729"></path><path d="M0 277L13.7 274C27.3 271 54.7 265 82 252C109.3 239 136.7 219 163.8 211C191 203 218 207 245.2 212C272.3 217 299.7 223 327 228C354.3 233 381.7 237 409 244C436.3 251 463.7 261 491 249C518.3 237 545.7 203 573 195C600.3 187 627.7 205 654.8 222C682 239 709 255 736.2 257C763.3 259 790.7 247 818 256C845.3 265 872.7 295 886.3 310L900 325L900 209L886.3 195C872.7 181 845.3 153 818 149C790.7 145 763.3 165 736.2 164C709 163 682 141 654.8 127C627.7 113 600.3 107 573 115C545.7 123 518.3 145 491 162C463.7 179 436.3 191 409 191C381.7 191 354.3 179 327 167C299.7 155 272.3 143 245.2 137C218 131 191 131 163.8 136C136.7 141 109.3 151 82 157C54.7 163 27.3 165 13.7 166L0 167Z" fill="#9e0436"></path><path d="M0 301L13.7 300C27.3 299 54.7 297 82 288C109.3 279 136.7 263 163.8 258C191 253 218 259 245.2 266C272.3 273 299.7 281 327 283C354.3 285 381.7 281 409 283C436.3 285 463.7 293 491 286C518.3 279 545.7 257 573 253C600.3 249 627.7 263 654.8 278C682 293 709 309 736.2 311C763.3 313 790.7 301 818 306C845.3 311 872.7 333 886.3 344L900 355L900 323L886.3 308C872.7 293 845.3 263 818 254C790.7 245 763.3 257 736.2 255C709 253 682 237 654.8 220C627.7 203 600.3 185 573 193C545.7 201 518.3 235 491 247C463.7 259 436.3 249 409 242C381.7 235 354.3 231 327 226C299.7 221 272.3 215 245.2 210C218 205 191 201 163.8 209C136.7 217 109.3 237 82 250C54.7 263 27.3 269 13.7 272L0 275Z" fill="#b30041"></path><path d="M0 355L13.7 352C27.3 349 54.7 343 82 334C109.3 325 136.7 313 163.8 309C191 305 218 309 245.2 313C272.3 317 299.7 321 327 323C354.3 325 381.7 325 409 330C436.3 335 463.7 345 491 333C518.3 321 545.7 287 573 281C600.3 275 627.7 297 654.8 318C682 339 709 359 736.2 362C763.3 365 790.7 351 818 355C845.3 359 872.7 381 886.3 392L900 403L900 353L886.3 342C872.7 331 845.3 309 818 304C790.7 299 763.3 311 736.2 309C709 307 682 291 654.8 276C627.7 261 600.3 247 573 251C545.7 255 518.3 277 491 284C463.7 291 436.3 283 409 281C381.7 279 354.3 283 327 281C299.7 279 272.3 271 245.2 264C218 257 191 251 163.8 256C136.7 261 109.3 277 82 286C54.7 295 27.3 297 13.7 298L0 299Z" fill="#b30041"></path><path d="M0 397L13.7 395C27.3 393 54.7 389 82 384C109.3 379 136.7 373 163.8 370C191 367 218 367 245.2 365C272.3 363 299.7 359 327 360C354.3 361 381.7 367 409 372C436.3 377 463.7 381 491 373C518.3 365 545.7 345 573 345C600.3 345 627.7 365 654.8 384C682 403 709 421 736.2 418C763.3 415 790.7 391 818 394C845.3 397 872.7 427 886.3 442L900 457L900 401L886.3 390C872.7 379 845.3 357 818 353C790.7 349 763.3 363 736.2 360C709 357 682 337 654.8 316C627.7 295 600.3 273 573 279C545.7 285 518.3 319 491 331C463.7 343 436.3 333 409 328C381.7 323 354.3 323 327 321C299.7 319 272.3 315 245.2 311C218 307 191 303 163.8 307C136.7 311 109.3 323 82 332C54.7 341 27.3 347 13.7 350L0 353Z" fill="#9e0436"></path><path d="M0 475L13.7 477C27.3 479 54.7 483 82 479C109.3 475 136.7 463 163.8 452C191 441 218 431 245.2 430C272.3 429 299.7 437 327 445C354.3 453 381.7 461 409 461C436.3 461 463.7 453 491 443C518.3 433 545.7 421 573 425C600.3 429 627.7 449 654.8 461C682 473 709 477 736.2 477C763.3 477 790.7 473 818 477C845.3 481 872.7 493 886.3 499L900 505L900 455L886.3 440C872.7 425 845.3 395 818 392C790.7 389 763.3 413 736.2 416C709 419 682 401 654.8 382C627.7 363 600.3 343 573 343C545.7 343 518.3 363 491 371C463.7 379 436.3 375 409 370C381.7 365 354.3 359 327 358C299.7 357 272.3 361 245.2 363C218 365 191 365 163.8 368C136.7 371 109.3 377 82 382C54.7 387 27.3 391 13.7 393L0 395Z" fill="#840729"></path><path d="M0 601L13.7 601C27.3 601 54.7 601 82 601C109.3 601 136.7 601 163.8 601C191 601 218 601 245.2 601C272.3 601 299.7 601 327 601C354.3 601 381.7 601 409 601C436.3 601 463.7 601 491 601C518.3 601 545.7 601 573 601C600.3 601 627.7 601 654.8 601C682 601 709 601 736.2 601C763.3 601 790.7 601 818 601C845.3 601 872.7 601 886.3 601L900 601L900 503L886.3 497C872.7 491 845.3 479 818 475C790.7 471 763.3 475 736.2 475C709 475 682 471 654.8 459C627.7 447 600.3 427 573 423C545.7 419 518.3 431 491 441C463.7 451 436.3 459 409 459C381.7 459 354.3 451 327 443C299.7 435 272.3 427 245.2 428C218 429 191 439 163.8 450C136.7 461 109.3 473 82 477C54.7 481 27.3 477 13.7 475L0 473Z" fill="#6a081d"></path></svg>