<svg id="visual" viewBox="0 0 900 600" width="900" height="600" xmlns="http://www.w3.org/2000/svg" xmlns:xlink="http://www.w3.org/1999/xlink" version="1.1"><rect x="0" y="0" width="900" height="600" fill="#001220"></rect><defs><linearGradient id="grad1_0" x1="33.3%" y1="0%" x2="100%" y2="100%"><stop offset="20%" stop-color="#001220" stop-opacity="1"></stop><stop offset="80%" stop-color="#001220" stop-opacity="1"></stop></linearGradient></defs><defs><linearGradient id="grad2_0" x1="0%" y1="0%" x2="66.7%" y2="100%"><stop offset="20%" stop-color="#001220" stop-opacity="1"></stop><stop offset="80%" stop-color="#001220" stop-opacity="1"></stop></linearGradient></defs><g transform="translate(900, 0)"><path d="M0 486.7C-55.9 449 -111.8 411.3 -156.5 377.9C-201.2 344.5 -234.8 315.4 -287.8 287.8C-340.8 260.2 -413.3 234 -449.7 186.3C-486.1 138.5 -486.4 69.3 -486.7 0L0 0Z" fill="#DE4169"></path></g><g transform="translate(0, 600)"><path d="M0 -486.7C69.7 -485.4 139.5 -484.1 186.3 -449.7C233.1 -415.3 257 -347.8 301.9 -301.9C346.9 -256.1 412.8 -231.9 447.2 -185.2C481.5 -138.5 484.1 -69.3 486.7 0L0 0Z" fill="#DE4169"></path></g></svg>