<svg id="visual" viewBox="0 0 900 600" width="900" height="600" xmlns="http://www.w3.org/2000/svg" xmlns:xlink="http://www.w3.org/1999/xlink" version="1.1"><g stroke-width="1" stroke-linejoin="bevel"><path d="M449 287L505.5 206L420 248Z" fill="#1a481c" stroke="#1a481c"></path><path d="M505.5 206L505.5 138L420 248Z" fill="#2b5b2a" stroke="#2b5b2a"></path><path d="M449 287L545.5 365L505.5 206Z" fill="#204e21" stroke="#204e21"></path><path d="M505.5 206L691 135L505.5 138Z" fill="#0e3c13" stroke="#0e3c13"></path><path d="M330.5 106L304.5 258L420 248Z" fill="#144217" stroke="#144217"></path><path d="M420 248L304.5 258L449 287Z" fill="#1a481c" stroke="#1a481c"></path><path d="M449 287L418 431L545.5 365Z" fill="#144217" stroke="#144217"></path><path d="M505.5 138L407 87L420 248Z" fill="#08360e" stroke="#08360e"></path><path d="M330.5 106L295.5 254L304.5 258Z" fill="#0e3c13" stroke="#0e3c13"></path><path d="M545.5 365L631 343L505.5 206Z" fill="#08360e" stroke="#08360e"></path><path d="M407 87L330.5 106L420 248Z" fill="#2b5b2a" stroke="#2b5b2a"></path><path d="M278.5 402L449 287L304.5 258Z" fill="#2b5b2a" stroke="#2b5b2a"></path><path d="M278.5 402L418 431L449 287Z" fill="#2b5b2a" stroke="#2b5b2a"></path><path d="M545.5 365L624 391L631 343Z" fill="#1a481c" stroke="#1a481c"></path><path d="M626.5 422L624 391L581.5 457Z" fill="#366834" stroke="#366834"></path><path d="M581.5 457L624 391L545.5 365Z" fill="#1a481c" stroke="#1a481c"></path><path d="M624 391L732.5 334L631 343Z" fill="#204e21" stroke="#204e21"></path><path d="M418 431L581.5 457L545.5 365Z" fill="#204e21" stroke="#204e21"></path><path d="M505.5 138L425 0L407 87Z" fill="#08360e" stroke="#08360e"></path><path d="M407 87L330.5 0L330.5 106Z" fill="#204e21" stroke="#204e21"></path><path d="M567.5 0L425 0L505.5 138Z" fill="#2b5b2a" stroke="#2b5b2a"></path><path d="M732.5 334L691 135L631 343Z" fill="#30612f" stroke="#30612f"></path><path d="M631 343L691 135L505.5 206Z" fill="#012a01" stroke="#012a01"></path><path d="M225 333L278.5 402L304.5 258Z" fill="#1a481c" stroke="#1a481c"></path><path d="M691 135L567.5 0L505.5 138Z" fill="#255525" stroke="#255525"></path><path d="M110.5 237L225 333L295.5 254Z" fill="#255525" stroke="#255525"></path><path d="M295.5 254L225 333L304.5 258Z" fill="#0e3c13" stroke="#0e3c13"></path><path d="M278.5 402L287 444L418 431Z" fill="#08360e" stroke="#08360e"></path><path d="M418 431L396 509L581.5 457Z" fill="#30612f" stroke="#30612f"></path><path d="M202 545L287 444L278.5 402Z" fill="#012a01" stroke="#012a01"></path><path d="M254 37L211 143L330.5 106Z" fill="#144217" stroke="#144217"></path><path d="M330.5 106L211 143L295.5 254Z" fill="#012a01" stroke="#012a01"></path><path d="M287 444L396 509L418 431Z" fill="#2b5b2a" stroke="#2b5b2a"></path><path d="M425 0L330.5 0L407 87Z" fill="#0e3c13" stroke="#0e3c13"></path><path d="M626.5 422L732.5 334L624 391Z" fill="#1a481c" stroke="#1a481c"></path><path d="M330.5 0L254 37L330.5 106Z" fill="#366834" stroke="#366834"></path><path d="M759.5 120L732 99L691 135Z" fill="#1a481c" stroke="#1a481c"></path><path d="M691 135L682 0L567.5 0Z" fill="#144217" stroke="#144217"></path><path d="M900 412L769.5 312L732.5 334Z" fill="#033008" stroke="#033008"></path><path d="M732.5 334L769.5 312L691 135Z" fill="#204e21" stroke="#204e21"></path><path d="M743.5 494L732.5 334L626.5 422Z" fill="#033008" stroke="#033008"></path><path d="M829.5 200L759.5 120L691 135Z" fill="#366834" stroke="#366834"></path><path d="M732 99L682 0L691 135Z" fill="#033008" stroke="#033008"></path><path d="M778.5 0L682 0L732 99Z" fill="#033008" stroke="#033008"></path><path d="M287 444L364.5 559L396 509Z" fill="#255525" stroke="#255525"></path><path d="M544.5 600L650 555L581.5 457Z" fill="#255525" stroke="#255525"></path><path d="M109.5 226L110.5 237L211 143Z" fill="#033008" stroke="#033008"></path><path d="M211 143L110.5 237L295.5 254Z" fill="#0e3c13" stroke="#0e3c13"></path><path d="M202 545L298.5 600L287 444Z" fill="#366834" stroke="#366834"></path><path d="M298.5 600L385 600L364.5 559Z" fill="#366834" stroke="#366834"></path><path d="M53.5 62L109.5 226L211 143Z" fill="#08360e" stroke="#08360e"></path><path d="M544.5 600L581.5 457L396 509Z" fill="#2b5b2a" stroke="#2b5b2a"></path><path d="M581.5 457L650 555L626.5 422Z" fill="#08360e" stroke="#08360e"></path><path d="M769.5 312L829.5 200L691 135Z" fill="#0e3c13" stroke="#0e3c13"></path><path d="M759.5 120L778.5 0L732 99Z" fill="#033008" stroke="#033008"></path><path d="M900 257L829.5 200L769.5 312Z" fill="#30612f" stroke="#30612f"></path><path d="M385 600L544.5 600L396 509Z" fill="#012a01" stroke="#012a01"></path><path d="M330.5 0L192 0L254 37Z" fill="#012a01" stroke="#012a01"></path><path d="M254 37L192 0L211 143Z" fill="#012a01" stroke="#012a01"></path><path d="M298.5 600L364.5 559L287 444Z" fill="#012a01" stroke="#012a01"></path><path d="M364.5 559L385 600L396 509Z" fill="#0e3c13" stroke="#0e3c13"></path><path d="M650 555L743.5 494L626.5 422Z" fill="#255525" stroke="#255525"></path><path d="M900 0L778.5 0L759.5 120Z" fill="#255525" stroke="#255525"></path><path d="M544.5 600L632 600L650 555Z" fill="#1a481c" stroke="#1a481c"></path><path d="M650 555L732.5 600L743.5 494Z" fill="#0e3c13" stroke="#0e3c13"></path><path d="M202 545L278.5 402L96.5 519Z" fill="#144217" stroke="#144217"></path><path d="M60.5 399L278.5 402L225 333Z" fill="#30612f" stroke="#30612f"></path><path d="M202 545L239 600L298.5 600Z" fill="#1a481c" stroke="#1a481c"></path><path d="M900 290L900 257L769.5 312Z" fill="#012a01" stroke="#012a01"></path><path d="M829.5 200L900 161L759.5 120Z" fill="#204e21" stroke="#204e21"></path><path d="M900 412L900 290L769.5 312Z" fill="#033008" stroke="#033008"></path><path d="M900 257L900 161L829.5 200Z" fill="#2b5b2a" stroke="#2b5b2a"></path><path d="M0 297L60.5 399L110.5 237Z" fill="#033008" stroke="#033008"></path><path d="M110.5 237L60.5 399L225 333Z" fill="#204e21" stroke="#204e21"></path><path d="M202 545L66.5 600L239 600Z" fill="#08360e" stroke="#08360e"></path><path d="M632 600L732.5 600L650 555Z" fill="#366834" stroke="#366834"></path><path d="M743.5 494L900 412L732.5 334Z" fill="#30612f" stroke="#30612f"></path><path d="M192 0L53.5 62L211 143Z" fill="#366834" stroke="#366834"></path><path d="M109.5 226L0 254L110.5 237Z" fill="#0e3c13" stroke="#0e3c13"></path><path d="M87.5 0L53.5 62L192 0Z" fill="#1a481c" stroke="#1a481c"></path><path d="M900 462L900 412L743.5 494Z" fill="#033008" stroke="#033008"></path><path d="M60.5 399L96.5 519L278.5 402Z" fill="#30612f" stroke="#30612f"></path><path d="M53.5 62L0 254L109.5 226Z" fill="#08360e" stroke="#08360e"></path><path d="M60.5 399L0 487L96.5 519Z" fill="#30612f" stroke="#30612f"></path><path d="M0 254L0 297L110.5 237Z" fill="#204e21" stroke="#204e21"></path><path d="M900 600L900 462L743.5 494Z" fill="#255525" stroke="#255525"></path><path d="M900 161L900 0L759.5 120Z" fill="#30612f" stroke="#30612f"></path><path d="M0 297L0 410L60.5 399Z" fill="#033008" stroke="#033008"></path><path d="M0 0L0 60L53.5 62Z" fill="#204e21" stroke="#204e21"></path><path d="M53.5 62L0 60L0 254Z" fill="#1a481c" stroke="#1a481c"></path><path d="M87.5 0L0 0L53.5 62Z" fill="#144217" stroke="#144217"></path><path d="M0 410L0 487L60.5 399Z" fill="#2b5b2a" stroke="#2b5b2a"></path><path d="M96.5 519L66.5 600L202 545Z" fill="#012a01" stroke="#012a01"></path><path d="M0 487L66.5 600L96.5 519Z" fill="#366834" stroke="#366834"></path><path d="M732.5 600L900 600L743.5 494Z" fill="#033008" stroke="#033008"></path><path d="M0 487L0 600L66.5 600Z" fill="#08360e" stroke="#08360e"></path></g></svg>