<svg id="visual" viewBox="0 0 900 600" width="900" height="600" xmlns="http://www.w3.org/2000/svg" xmlns:xlink="http://www.w3.org/1999/xlink" version="1.1"><rect x="0" y="0" width="900" height="600" fill="#01a5ab"></rect><path d="M225 0L368 0L368 43L765 43L765 86L795 86L795 129L633 129L633 171L734 171L734 214L208 214L208 257L242 257L242 300L587 300L587 343L183 343L183 386L735 386L735 429L300 429L300 471L296 471L296 514L735 514L735 557L645 557L645 600L0 600L0 557L0 557L0 514L0 514L0 471L0 471L0 429L0 429L0 386L0 386L0 343L0 343L0 300L0 300L0 257L0 257L0 214L0 214L0 171L0 171L0 129L0 129L0 86L0 86L0 43L0 43L0 0L0 0Z" fill="#1fbcc7"></path><path d="M254 0L415 0L415 43L352 43L352 86L517 86L517 129L614 129L614 171L611 171L611 214L620 214L620 257L490 257L490 300L645 300L645 343L190 343L190 386L599 386L599 429L139 429L139 471L656 471L656 514L279 514L279 557L573 557L573 600L0 600L0 557L0 557L0 514L0 514L0 471L0 471L0 429L0 429L0 386L0 386L0 343L0 343L0 300L0 300L0 257L0 257L0 214L0 214L0 171L0 171L0 129L0 129L0 86L0 86L0 43L0 43L0 0L0 0Z" fill="#008aaa"></path><path d="M440 0L271 0L271 43L303 43L303 86L534 86L534 129L392 129L392 171L355 171L355 214L103 214L103 257L537 257L537 300L353 300L353 343L63 343L63 386L310 386L310 429L352 429L352 471L428 471L428 514L236 514L236 557L483 557L483 600L0 600L0 557L0 557L0 514L0 514L0 471L0 471L0 429L0 429L0 386L0 386L0 343L0 343L0 300L0 300L0 257L0 257L0 214L0 214L0 171L0 171L0 129L0 129L0 86L0 86L0 43L0 43L0 0L0 0Z" fill="#115a82"></path><path d="M342 0L191 0L191 43L239 43L239 86L177 86L177 129L56 129L56 171L314 171L314 214L255 214L255 257L87 257L87 300L352 300L352 343L327 343L327 386L59 386L59 429L374 429L374 471L395 471L395 514L332 514L332 557L270 557L270 600L0 600L0 557L0 557L0 514L0 514L0 471L0 471L0 429L0 429L0 386L0 386L0 343L0 343L0 300L0 300L0 257L0 257L0 214L0 214L0 171L0 171L0 129L0 129L0 86L0 86L0 43L0 43L0 0L0 0Z" fill="#1d2e52"></path><path d="M36 0L57 0L57 43L43 43L43 86L64 86L64 129L240 129L240 171L254 171L254 214L71 214L71 257L156 257L156 300L178 300L178 343L48 343L48 386L32 386L32 429L239 429L239 471L189 471L189 514L134 514L134 557L58 557L58 600L0 600L0 557L0 557L0 514L0 514L0 471L0 471L0 429L0 429L0 386L0 386L0 343L0 343L0 300L0 300L0 257L0 257L0 214L0 214L0 171L0 171L0 129L0 129L0 86L0 86L0 43L0 43L0 0L0 0Z" fill="#140021"></path></svg>