<svg id="visual" viewBox="0 0 900 600" width="900" height="600" xmlns="http://www.w3.org/2000/svg" xmlns:xlink="http://www.w3.org/1999/xlink" version="1.1"><path d="M0 109L113 193L225 169L338 139L450 157L563 211L675 145L788 145L900 121L900 0L788 0L675 0L563 0L450 0L338 0L225 0L113 0L0 0Z" fill="#522207"></path><path d="M0 169L113 277L225 223L338 217L450 205L563 259L675 193L788 217L900 187L900 119L788 143L675 143L563 209L450 155L338 137L225 167L113 191L0 107Z" fill="#723610"></path><path d="M0 211L113 331L225 265L338 289L450 271L563 307L675 265L788 283L900 235L900 185L788 215L675 191L563 257L450 203L338 215L225 221L113 275L0 167Z" fill="#934c15"></path><path d="M0 391L113 427L225 451L338 451L450 403L563 427L675 445L788 397L900 439L900 233L788 281L675 263L563 305L450 269L338 287L225 263L113 329L0 209Z" fill="#a05517"></path><path d="M0 439L113 475L225 499L338 505L450 445L563 481L675 481L788 457L900 475L900 437L788 395L675 443L563 425L450 401L338 449L225 449L113 425L0 389Z" fill="#934c15"></path><path d="M0 553L113 559L225 571L338 565L450 565L563 547L675 553L788 553L900 553L900 473L788 455L675 479L563 479L450 443L338 503L225 497L113 473L0 437Z" fill="#723610"></path><path d="M0 601L113 601L225 601L338 601L450 601L563 601L675 601L788 601L900 601L900 551L788 551L675 551L563 545L450 563L338 563L225 569L113 557L0 551Z" fill="#522207"></path></svg>