<svg id="visual" viewBox="0 0 900 600" width="900" height="600" xmlns="http://www.w3.org/2000/svg" xmlns:xlink="http://www.w3.org/1999/xlink" version="1.1"><path d="M0 115L82 73L164 127L245 61L327 115L409 91L491 67L573 115L655 97L736 67L818 49L900 127L900 0L818 0L736 0L655 0L573 0L491 0L409 0L327 0L245 0L164 0L82 0L0 0Z" fill="#262f3e"></path><path d="M0 259L82 295L164 247L245 199L327 265L409 259L491 235L573 247L655 205L736 361L818 271L900 313L900 125L818 47L736 65L655 95L573 113L491 65L409 89L327 113L245 59L164 125L82 71L0 113Z" fill="#26292e"></path><path d="M0 307L82 343L164 319L245 253L327 331L409 319L491 277L573 313L655 283L736 409L818 355L900 385L900 311L818 269L736 359L655 203L573 245L491 233L409 257L327 263L245 197L164 245L82 293L0 257Z" fill="#252525"></path><path d="M0 541L82 463L164 475L245 427L327 535L409 469L491 493L573 547L655 463L736 517L818 499L900 457L900 383L818 353L736 407L655 281L573 311L491 275L409 317L327 329L245 251L164 317L82 341L0 305Z" fill="#26292e"></path><path d="M0 601L82 601L164 601L245 601L327 601L409 601L491 601L573 601L655 601L736 601L818 601L900 601L900 455L818 497L736 515L655 461L573 545L491 491L409 467L327 533L245 425L164 473L82 461L0 539Z" fill="#262f3e"></path></svg>