<svg id="visual" viewBox="0 0 900 600" width="900" height="600" xmlns="http://www.w3.org/2000/svg" xmlns:xlink="http://www.w3.org/1999/xlink" version="1.1"><path d="M0 73L13.7 87C27.3 101 54.7 129 82 143C109.3 157 136.7 157 163.8 160C191 163 218 169 245.2 160C272.3 151 299.7 127 327 117C354.3 107 381.7 111 409 126C436.3 141 463.7 167 491 164C518.3 161 545.7 129 573 118C600.3 107 627.7 117 654.8 114C682 111 709 95 736.2 90C763.3 85 790.7 91 818 102C845.3 113 872.7 129 886.3 137L900 145L900 0L886.3 0C872.7 0 845.3 0 818 0C790.7 0 763.3 0 736.2 0C709 0 682 0 654.8 0C627.7 0 600.3 0 573 0C545.7 0 518.3 0 491 0C463.7 0 436.3 0 409 0C381.7 0 354.3 0 327 0C299.7 0 272.3 0 245.2 0C218 0 191 0 163.8 0C136.7 0 109.3 0 82 0C54.7 0 27.3 0 13.7 0L0 0Z" fill="#3e2c68"></path><path d="M0 127L13.7 139C27.3 151 54.7 175 82 186C109.3 197 136.7 195 163.8 194C191 193 218 193 245.2 185C272.3 177 299.7 161 327 155C354.3 149 381.7 153 409 164C436.3 175 463.7 193 491 192C518.3 191 545.7 171 573 161C600.3 151 627.7 151 654.8 145C682 139 709 127 736.2 124C763.3 121 790.7 127 818 136C845.3 145 872.7 157 886.3 163L900 169L900 143L886.3 135C872.7 127 845.3 111 818 100C790.7 89 763.3 83 736.2 88C709 93 682 109 654.8 112C627.7 115 600.3 105 573 116C545.7 127 518.3 159 491 162C463.7 165 436.3 139 409 124C381.7 109 354.3 105 327 115C299.7 125 272.3 149 245.2 158C218 167 191 161 163.8 158C136.7 155 109.3 155 82 141C54.7 127 27.3 99 13.7 85L0 71Z" fill="#6a4e95"></path><path d="M0 271L13.7 281C27.3 291 54.7 311 82 325C109.3 339 136.7 347 163.8 346C191 345 218 335 245.2 334C272.3 333 299.7 341 327 343C354.3 345 381.7 341 409 330C436.3 319 463.7 301 491 307C518.3 313 545.7 343 573 339C600.3 335 627.7 297 654.8 287C682 277 709 295 736.2 306C763.3 317 790.7 321 818 326C845.3 331 872.7 337 886.3 340L900 343L900 167L886.3 161C872.7 155 845.3 143 818 134C790.7 125 763.3 119 736.2 122C709 125 682 137 654.8 143C627.7 149 600.3 149 573 159C545.7 169 518.3 189 491 190C463.7 191 436.3 173 409 162C381.7 151 354.3 147 327 153C299.7 159 272.3 175 245.2 183C218 191 191 191 163.8 192C136.7 193 109.3 195 82 184C54.7 173 27.3 149 13.7 137L0 125Z" fill="#9974c5"></path><path d="M0 313L13.7 324C27.3 335 54.7 357 82 370C109.3 383 136.7 387 163.8 385C191 383 218 375 245.2 373C272.3 371 299.7 375 327 381C354.3 387 381.7 395 409 384C436.3 373 463.7 343 491 342C518.3 341 545.7 369 573 372C600.3 375 627.7 353 654.8 347C682 341 709 351 736.2 357C763.3 363 790.7 365 818 370C845.3 375 872.7 383 886.3 387L900 391L900 341L886.3 338C872.7 335 845.3 329 818 324C790.7 319 763.3 315 736.2 304C709 293 682 275 654.8 285C627.7 295 600.3 333 573 337C545.7 341 518.3 311 491 305C463.7 299 436.3 317 409 328C381.7 339 354.3 343 327 341C299.7 339 272.3 331 245.2 332C218 333 191 343 163.8 344C136.7 345 109.3 337 82 323C54.7 309 27.3 289 13.7 279L0 269Z" fill="#c193ec"></path><path d="M0 367L13.7 376C27.3 385 54.7 403 82 415C109.3 427 136.7 433 163.8 430C191 427 218 415 245.2 414C272.3 413 299.7 423 327 433C354.3 443 381.7 453 409 443C436.3 433 463.7 403 491 401C518.3 399 545.7 425 573 431C600.3 437 627.7 423 654.8 416C682 409 709 409 736.2 408C763.3 407 790.7 405 818 408C845.3 411 872.7 419 886.3 423L900 427L900 389L886.3 385C872.7 381 845.3 373 818 368C790.7 363 763.3 361 736.2 355C709 349 682 339 654.8 345C627.7 351 600.3 373 573 370C545.7 367 518.3 339 491 340C463.7 341 436.3 371 409 382C381.7 393 354.3 385 327 379C299.7 373 272.3 369 245.2 371C218 373 191 381 163.8 383C136.7 385 109.3 381 82 368C54.7 355 27.3 333 13.7 322L0 311Z" fill="#c193ec"></path><path d="M0 475L13.7 486C27.3 497 54.7 519 82 520C109.3 521 136.7 501 163.8 497C191 493 218 505 245.2 508C272.3 511 299.7 505 327 503C354.3 501 381.7 503 409 498C436.3 493 463.7 481 491 486C518.3 491 545.7 513 573 518C600.3 523 627.7 511 654.8 510C682 509 709 519 736.2 518C763.3 517 790.7 505 818 499C845.3 493 872.7 493 886.3 493L900 493L900 425L886.3 421C872.7 417 845.3 409 818 406C790.7 403 763.3 405 736.2 406C709 407 682 407 654.8 414C627.7 421 600.3 435 573 429C545.7 423 518.3 397 491 399C463.7 401 436.3 431 409 441C381.7 451 354.3 441 327 431C299.7 421 272.3 411 245.2 412C218 413 191 425 163.8 428C136.7 431 109.3 425 82 413C54.7 401 27.3 383 13.7 374L0 365Z" fill="#9974c5"></path><path d="M0 541L13.7 548C27.3 555 54.7 569 82 571C109.3 573 136.7 563 163.8 561C191 559 218 565 245.2 565C272.3 565 299.7 559 327 558C354.3 557 381.7 561 409 561C436.3 561 463.7 557 491 557C518.3 557 545.7 561 573 560C600.3 559 627.7 553 654.8 553C682 553 709 559 736.2 558C763.3 557 790.7 549 818 544C845.3 539 872.7 537 886.3 536L900 535L900 491L886.3 491C872.7 491 845.3 491 818 497C790.7 503 763.3 515 736.2 516C709 517 682 507 654.8 508C627.7 509 600.3 521 573 516C545.7 511 518.3 489 491 484C463.7 479 436.3 491 409 496C381.7 501 354.3 499 327 501C299.7 503 272.3 509 245.2 506C218 503 191 491 163.8 495C136.7 499 109.3 519 82 518C54.7 517 27.3 495 13.7 484L0 473Z" fill="#6a4e95"></path><path d="M0 601L13.7 601C27.3 601 54.7 601 82 601C109.3 601 136.7 601 163.8 601C191 601 218 601 245.2 601C272.3 601 299.7 601 327 601C354.3 601 381.7 601 409 601C436.3 601 463.7 601 491 601C518.3 601 545.7 601 573 601C600.3 601 627.7 601 654.8 601C682 601 709 601 736.2 601C763.3 601 790.7 601 818 601C845.3 601 872.7 601 886.3 601L900 601L900 533L886.3 534C872.7 535 845.3 537 818 542C790.7 547 763.3 555 736.2 556C709 557 682 551 654.8 551C627.7 551 600.3 557 573 558C545.7 559 518.3 555 491 555C463.7 555 436.3 559 409 559C381.7 559 354.3 555 327 556C299.7 557 272.3 563 245.2 563C218 563 191 557 163.8 559C136.7 561 109.3 571 82 569C54.7 567 27.3 553 13.7 546L0 539Z" fill="#3e2c68"></path></svg>